<svg width="141" height="100" viewBox="0 0 141 100" fill="none" xmlns="http://www.w3.org/2000/svg">
<g clip-path="url(#clip0_77_34)">
<path d="M60.2858 55.213C60.2858 57.6368 61.4629 59.6662 64.0236 59.6662C65.4986 59.6662 66.7478 58.7189 67.3003 57.2425L71.6146 57.6128C70.7594 61.2821 67.7615 63.2682 64.187 63.2682C59.4835 63.2682 55.6784 59.9211 55.6784 54.8668C55.6784 50.4809 59.0222 46.1383 63.9564 46.1383C68.0594 46.1383 71.5233 48.6535 72.0038 53.1788L67.6894 52.7845C67.3675 51.0772 66.0079 49.7595 64.1822 49.7595C61.3668 49.7595 60.2858 52.6931 60.2858 55.2082V55.213Z" fill="#E11074"/>
<path d="M87.7719 59.4402C86.8735 62.0467 84.428 63.6434 81.7279 63.8021C78.2207 64.0088 75.7993 62.7393 74.7183 60.1568C74.4204 59.4162 74.233 58.5409 74.1418 57.2232L73.5652 47.4368L77.8075 47.1819L78.4321 57.0645C78.4801 58.1947 78.7107 58.7718 79.0567 59.1902C79.5852 59.9067 80.4163 60.277 81.3628 60.2049C82.2612 60.1568 83.0251 59.6759 83.4383 58.9112C83.7169 58.4496 83.8755 57.8484 83.8082 56.7856L83.2317 46.8356L87.498 46.5807L88.0986 56.5067C88.1658 57.6609 88.0313 58.6083 87.7767 59.4402H87.7719Z" fill="#E11074"/>
<path d="M104.333 49.6489C104.333 51.3129 103.295 52.972 101.402 53.5491C103.084 54.2897 103.939 55.8094 103.939 57.3579C103.939 58.9064 103.04 60.5655 101.195 61.3735C100.528 61.6716 99.7637 61.8351 98.8893 61.8351C98.6827 61.8351 98.4521 61.8351 97.669 61.7678L90.2654 61.0272L91.8316 44.5657L99.4178 45.2823C100.849 45.4218 101.724 45.744 102.416 46.2056C103.708 47.0617 104.328 48.3505 104.328 49.6441L104.333 49.6489ZM97.3663 58.5602C97.9909 58.5602 98.4521 58.4207 98.8172 58.1466C99.2784 57.8003 99.5331 57.2473 99.5331 56.6942C99.5331 56.2085 99.3265 55.7036 98.9085 55.3573C98.5626 55.0592 98.0773 54.8716 97.4768 54.8043L95.1707 54.5734L94.8248 58.3341L96.5063 58.5169L97.3615 58.565L97.3663 58.5602ZM98.0101 51.9381C98.4233 51.9381 98.8412 51.7986 99.1391 51.6159C99.6676 51.2696 99.9703 50.6685 99.9703 50.0673C99.9703 49.5383 99.7397 49.0045 99.2112 48.6823C98.9325 48.4996 98.5434 48.3601 97.8515 48.288L95.8 48.1052L95.4541 51.7072L97.6209 51.914C97.7362 51.9381 97.8515 51.9381 98.0149 51.9381H98.0101Z" fill="#E11074"/>
<path d="M119.298 63.0855L107.653 64.3311L105.923 47.8696L117.362 46.6481L117.732 50.1106L110.559 50.8512L110.881 53.9434L117.223 53.2509L117.569 56.6894L111.227 57.3819L111.549 60.4309L118.929 59.647L119.298 63.0855Z" fill="#E11074"/>
<path d="M60.2858 79.2584C60.2858 81.6822 61.4629 83.7116 64.0236 83.7116C65.4986 83.7116 66.7478 82.7643 67.3003 81.2879L71.6146 81.6582C70.7594 85.3275 67.7615 87.3136 64.187 87.3136C59.4835 87.3136 55.6784 83.9665 55.6784 78.9122C55.6784 74.5263 59.0222 70.1837 63.9564 70.1837C68.0594 70.1837 71.5233 72.6989 72.0038 77.2242L67.6894 76.8299C67.3675 75.1226 66.0079 73.8049 64.1822 73.8049C61.3668 73.8049 60.2858 76.7385 60.2858 79.2536V79.2584Z" fill="#E11074"/>
<path d="M79.907 80.3453L78.4321 80.4607L78.826 86.0489L74.5597 86.347L73.4067 69.8423L79.2873 69.4046C80.6709 69.3133 80.8775 69.3133 81.0841 69.3133C84.7499 69.3133 86.8975 71.713 86.8975 74.483C86.8975 76.5365 85.6531 78.3832 84.0148 79.2632L88.9249 85.3323L83.9668 85.6786L79.907 80.3453ZM80.325 77.0415C81.872 76.926 82.4486 75.8873 82.4486 74.7571C82.4486 73.627 81.7567 72.6123 80.3731 72.6123C79.7053 72.6123 78.5282 72.7277 77.9036 72.7758L78.2255 77.2098L80.325 77.0463V77.0415Z" fill="#E11074"/>
<path d="M101.243 87.203L89.5495 86.65L90.3086 70.1212L101.796 70.6502L101.633 74.1127L94.4116 73.7665L94.2722 76.8587L100.456 77.1136L100.292 80.5761L94.1089 80.3212L93.9936 83.3894L101.397 83.7116L101.234 87.1982L101.243 87.203Z" fill="#E11074"/>
<path d="M113.831 83.6924L107.878 84.106L106.865 87.8667L102.507 88.1889L107.417 71.2417L112.745 70.8714L119.985 86.9626L115.349 87.2848L113.826 83.6828L113.831 83.6924ZM108.734 80.9464L112.563 80.6675L110.281 75.1034L108.734 80.9464Z" fill="#E11074"/>
<path d="M129.191 86.2989L126.284 75.9546L124.968 86.0873L120.769 85.8805L123.214 69.3998L128.105 69.6547L131.17 81.1725L135.436 70.0683L140.347 70.3232L140.99 86.9674L136.767 86.7125L136.604 76.5317L132.568 86.4817L129.176 86.2989H129.191Z" fill="#E11074"/>
<path d="M65.2103 90.3818L54.434 96.1672C52.6948 97.1001 50.7346 97.5906 48.7648 97.5906C46.795 97.5906 44.8348 97.0953 43.0956 96.1672L7.59098 77.1088C5.71725 76.1037 4.19425 74.483 3.30544 72.5498C2.71449 71.2657 2.40221 69.8374 2.40221 68.4236V27.758C2.40221 26.3009 2.74332 24.8389 3.38711 23.5308C4.37682 21.5206 6.05356 19.9192 8.10505 19.0199L43.4127 3.52506C45.1087 2.77965 46.9103 2.40454 48.7648 2.40454C50.6193 2.40454 52.4162 2.78446 54.1169 3.52506L89.4246 19.0151C91.4761 19.9144 93.1528 21.5158 94.1425 23.526C94.7863 24.8341 95.1274 26.296 95.1274 27.7532V41.4639H97.5296V27.7532C97.5296 25.9161 97.1068 24.1079 96.2949 22.4632C95.0506 19.9433 92.9606 17.9427 90.3855 16.8125L55.0778 1.3225C53.0888 0.452053 50.9412 0 48.7648 0C46.5932 0 44.4408 0.452053 42.4518 1.3225L7.14417 16.8174C4.5738 17.9475 2.47908 19.9481 1.23473 22.468C0.422789 24.1127 0 25.9257 0 27.758V68.4284C0 70.1981 0.384353 71.9535 1.12423 73.5597C2.23886 75.9787 4.11258 77.9696 6.45713 79.2296L41.9618 98.2928C44.0517 99.4181 46.3914 100.005 48.7648 100.005C51.1382 100.005 53.478 99.4181 55.5679 98.2928L70.2886 90.3867H65.2055L65.2103 90.3818Z" fill="#E11074"/>
<path d="M48.7648 46.2104C48.5534 46.2104 48.342 46.1624 48.1354 46.0662L8.38851 26.7914C7.67265 26.4451 7.37478 25.5795 7.7207 24.8629C8.06661 24.1464 8.93141 23.8482 9.64727 24.1945L49.399 43.4741C50.1149 43.8203 50.4127 44.686 50.0668 45.4025C49.817 45.9171 49.3029 46.2153 48.7696 46.2153L48.7648 46.2104Z" fill="#E11074"/>
<path d="M56.9371 42.5844C56.3846 42.5844 55.8561 42.2622 55.6207 41.7236C55.2988 40.9974 55.6255 40.1414 56.3558 39.8192L87.5028 25.9931C88.2283 25.6709 89.0835 25.9979 89.4054 26.7289C89.7273 27.455 89.4006 28.3111 88.6703 28.6333L57.5233 42.4594C57.3311 42.5459 57.1341 42.5844 56.9419 42.5844H56.9371Z" fill="#E11074"/>
<path d="M48.7648 91.8246C47.9673 91.8246 47.3235 91.1801 47.3235 90.3818V44.7677C47.3235 43.9694 47.9673 43.325 48.7648 43.325C49.5623 43.325 50.2061 43.9694 50.2061 44.7677V90.3818C50.2061 91.1801 49.5623 91.8246 48.7648 91.8246Z" fill="#E11074"/>
<path d="M18.276 24.2378C18.0934 24.1752 17.9205 24.0791 17.7571 23.954C16.9644 23.3337 16.8251 22.1891 17.44 21.3956C21.8601 15.7257 28.4277 11.6235 35.4566 10.1375C36.4415 9.93075 37.4072 10.5607 37.6138 11.5466C37.8204 12.5325 37.191 13.4991 36.2061 13.7059C30.0036 15.0188 24.2095 18.64 20.3083 23.6414C19.8134 24.2762 18.9871 24.4926 18.2664 24.2378H18.276Z" fill="#F47B3A"/>
<path d="M81.4973 19.2892C81.6607 19.3902 81.8144 19.5152 81.9489 19.6691C82.6023 20.4338 82.511 21.588 81.7471 22.242C76.2797 26.9068 69.0251 29.6095 61.8424 29.6576C60.8383 29.6624 60.0168 28.8545 60.0072 27.8446C60.0024 26.8395 60.8095 26.0171 61.8184 26.0075C68.1554 25.9642 74.5597 23.5837 79.3834 19.4623C79.9935 18.943 80.8487 18.8949 81.5021 19.2844L81.4973 19.2892Z" fill="#E5386D"/>
<path d="M38.0077 31.0137C37.5369 30.0183 37.8444 28.7968 38.7812 28.162C39.819 27.455 41.2315 27.7243 41.9377 28.7631C45.5074 34.0146 47.3139 34.3945 53.329 31.1773C54.434 30.5857 55.8129 31.0041 56.4038 32.1102C56.9996 33.2211 56.5768 34.5965 55.4718 35.188C52.3729 36.8472 49.0579 38.2899 45.8005 37.6166C43.0716 37.054 40.7943 35.1688 38.1807 31.3215C38.1134 31.2205 38.0558 31.1196 38.0077 31.0186V31.0137Z" fill="#187DC2"/>
<path d="M45.272 24.7283C45.0942 24.5071 44.9645 24.2474 44.8925 23.9588C43.4848 18.3563 45.5651 15.87 47.2322 13.8742C48.6351 12.2006 49.6488 10.9887 48.9618 7.53102C48.7456 6.43455 49.4567 5.36693 50.5569 5.14572C51.6571 4.92931 52.7188 5.64105 52.9399 6.74233C54.0016 12.1045 51.9694 14.5282 50.3407 16.4759C48.8849 18.2168 47.9192 19.371 48.8225 22.9682C49.0963 24.055 48.4381 25.1563 47.3523 25.4304C46.5596 25.6324 45.7524 25.3294 45.272 24.7283Z" fill="#25B468"/>
<path d="M31.4497 28.5419C33.132 28.5419 34.4957 27.1768 34.4957 25.4929C34.4957 23.809 33.132 22.444 31.4497 22.444C29.7674 22.444 28.4037 23.809 28.4037 25.4929C28.4037 27.1768 29.7674 28.5419 31.4497 28.5419Z" fill="#E5386D"/>
<path d="M63.8603 20.2607C65.8318 20.2607 67.43 18.6609 67.43 16.6875C67.43 14.7141 65.8318 13.1144 63.8603 13.1144C61.8888 13.1144 60.2906 14.7141 60.2906 16.6875C60.2906 18.6609 61.8888 20.2607 63.8603 20.2607Z" fill="#FDCE07"/>
<path d="M17.2961 35.0534C17.4402 35.0726 17.5795 35.1207 17.7141 35.188C18.3819 35.5295 18.6461 36.347 18.305 37.0155C15.8692 41.7861 11.6461 45.7151 6.71196 47.7926C6.02012 48.086 5.2274 47.759 4.93433 47.0665C4.64126 46.374 4.96796 45.5805 5.65979 45.2871C10.0126 43.4548 13.7408 39.9875 15.8884 35.7795C16.1622 35.2457 16.734 34.9716 17.2961 35.0534Z" fill="#E5386D"/>
<path d="M25.8622 41.6851C25.891 41.4927 25.9487 41.3052 26.0399 41.1224C26.4964 40.2231 27.5918 39.8625 28.4854 40.3193C34.8945 43.5655 40.1889 49.2209 43.0043 55.8382C43.3983 56.7664 42.9659 57.834 42.0434 58.2283C41.1162 58.6227 40.0496 58.1899 39.6556 57.2665C37.1718 51.4283 32.5019 46.4365 26.8471 43.5751C26.1312 43.2144 25.7565 42.4401 25.867 41.6851H25.8622Z" fill="#F47B3A"/>
<path d="M35.4758 60.3251C36.5328 60.6329 37.2342 61.6764 37.0853 62.8066C36.9219 64.0521 35.7785 64.9274 34.5341 64.7639C28.2452 63.9319 26.7558 65.0284 25.1511 71.6649C24.8581 72.8864 23.6281 73.6366 22.4078 73.3385C21.1875 73.0451 20.438 71.814 20.7359 70.5925C21.5622 67.1732 22.6961 63.7395 25.3625 61.7534C27.6014 60.0894 30.5225 59.6422 35.1299 60.253C35.25 60.2674 35.3653 60.2914 35.4758 60.3251Z" fill="#FDCE07"/>
<path d="M13.6061 75.4256C13.3323 75.3679 13.0632 75.2477 12.823 75.0697C8.18672 71.6312 8.21555 68.3899 8.24438 65.7882C8.2684 63.6049 8.28281 62.0227 5.56351 59.7865C4.69872 59.0747 4.5738 57.7955 5.28486 56.9299C5.99591 56.0642 7.27389 55.9392 8.13868 56.651C12.357 60.1231 12.3233 63.2875 12.2993 65.8267C12.2753 68.1014 12.2609 69.6018 15.2396 71.8092C16.138 72.4776 16.3254 73.7472 15.6624 74.6465C15.1723 75.3054 14.3652 75.5843 13.6109 75.4256H13.6061Z" fill="#25B468"/>
<path d="M37.1045 88.2562C39.8295 88.2562 42.0386 86.045 42.0386 83.3173C42.0386 80.5896 39.8295 78.3784 37.1045 78.3784C34.3795 78.3784 32.1704 80.5896 32.1704 83.3173C32.1704 86.045 34.3795 88.2562 37.1045 88.2562Z" fill="#E5386D"/>
<path d="M19.1648 55.492C20.8816 55.492 22.2733 54.0989 22.2733 52.3805C22.2733 50.6621 20.8816 49.269 19.1648 49.269C17.4481 49.269 16.0564 50.6621 16.0564 52.3805C16.0564 54.0989 17.4481 55.492 19.1648 55.492Z" fill="#187DC2"/>
</g>
<defs>
<clipPath id="clip0_77_34">
<rect width="141" height="100" fill="white"/>
</clipPath>
</defs>
</svg>
