<svg width="153" height="108" viewBox="0 0 153 108" fill="none" xmlns="http://www.w3.org/2000/svg">
<g clip-path="url(#clip0_77_114)">
<path d="M65.4165 59.6303C65.4165 62.248 66.6937 64.4398 69.4724 64.4398C71.0729 64.4398 72.4284 63.4166 73.0279 61.8221L77.7095 62.222C76.7815 66.1849 73.5284 68.3299 69.6497 68.3299C64.5459 68.3299 60.4169 64.715 60.4169 59.2563C60.4169 54.5196 64.0454 49.8296 69.3994 49.8296C73.8516 49.8296 77.6104 52.5459 78.1317 57.4333L73.4502 57.0074C73.1009 55.1636 71.6255 53.7405 69.6445 53.7405C66.5895 53.7405 65.4165 56.9087 65.4165 59.6251V59.6303Z" fill="white"/>
<path d="M95.2418 64.1956C94.2669 67.0107 91.6133 68.735 88.6835 68.9064C84.8777 69.1297 82.2502 67.7586 81.0772 64.9695C80.754 64.1696 80.5507 63.2244 80.4517 61.8013L79.826 51.2319L84.4294 50.9566L85.1071 61.6299C85.1593 62.8504 85.4095 63.4737 85.7849 63.9255C86.3583 64.6994 87.2602 65.0993 88.2872 65.0214C89.2621 64.9695 90.091 64.4501 90.5394 63.6243C90.8418 63.1257 91.0138 62.4765 90.9408 61.3286L90.3152 50.5826L94.9446 50.3074L95.5963 61.0274C95.6693 62.2739 95.5233 63.2971 95.247 64.1956H95.2418Z" fill="white"/>
<path d="M113.212 53.621C113.212 55.418 112.086 57.2099 110.032 57.8331C111.857 58.633 112.785 60.2742 112.785 61.9466C112.785 63.619 111.81 65.4109 109.808 66.2835C109.083 66.6055 108.254 66.7821 107.305 66.7821C107.081 66.7821 106.831 66.7821 105.981 66.7093L97.9475 65.9095L99.647 48.1311L107.879 48.905C109.432 49.0556 110.381 49.4036 111.132 49.9022C112.534 50.8267 113.207 52.2186 113.207 53.6158L113.212 53.621ZM105.653 63.2451C106.33 63.2451 106.831 63.0945 107.227 62.7984C107.728 62.4245 108.004 61.8272 108.004 61.2299C108.004 60.7053 107.78 60.16 107.326 59.786C106.951 59.464 106.424 59.2614 105.773 59.1887L103.27 58.9394L102.895 63.001L104.72 63.1983L105.648 63.2503L105.653 63.2451ZM106.351 56.0932C106.8 56.0932 107.253 55.9426 107.576 55.7452C108.15 55.3713 108.478 54.722 108.478 54.0728C108.478 53.5015 108.228 52.925 107.655 52.577C107.352 52.3796 106.93 52.229 106.179 52.1511L103.953 51.9537L103.578 55.8439L105.929 56.0672C106.054 56.0932 106.179 56.0932 106.357 56.0932H106.351Z" fill="white"/>
<path d="M129.451 68.1326L116.814 69.4778L114.938 51.6994L127.35 50.3801L127.752 54.1197L119.968 54.9195L120.318 58.2591L127.199 57.5112L127.575 61.2248L120.693 61.9727L121.042 65.2656L129.05 64.419L129.451 68.1326Z" fill="white"/>
<path d="M65.4165 85.5993C65.4165 88.217 66.6937 90.4088 69.4724 90.4088C71.0729 90.4088 72.4284 89.3856 73.0279 87.7911L77.7095 88.191C76.7815 92.1539 73.5284 94.2989 69.6497 94.2989C64.5459 94.2989 60.4169 90.684 60.4169 85.2253C60.4169 80.4886 64.0454 75.7986 69.3994 75.7986C73.8516 75.7986 77.6104 78.5149 78.1317 83.4023L73.4502 82.9764C73.1009 81.1326 71.6255 79.7095 69.6445 79.7095C66.5895 79.7095 65.4165 82.8777 65.4165 85.5941V85.5993Z" fill="white"/>
<path d="M86.7076 86.773L85.1071 86.8976L85.5346 92.9328L80.9052 93.2549L79.654 75.4297L86.0351 74.9571C87.5365 74.8584 87.7607 74.8584 87.9849 74.8584C91.9626 74.8584 94.2929 77.4501 94.2929 80.4417C94.2929 82.6595 92.9427 84.6539 91.165 85.6044L96.493 92.159L91.1128 92.5329L86.7076 86.773ZM87.1612 83.2048C88.8398 83.0802 89.4654 81.9583 89.4654 80.7378C89.4654 79.5172 88.7147 78.4213 87.2133 78.4213C86.4886 78.4213 85.2114 78.546 84.5336 78.5979L84.8829 83.3866L87.1612 83.21V83.2048Z" fill="white"/>
<path d="M109.86 94.1794L97.1707 93.5821L97.9944 75.731L110.459 76.3023L110.282 80.0418L102.447 79.6679L102.295 83.0075L109.005 83.2828L108.828 87.0223L102.118 86.747L101.993 90.0607L110.027 90.4087L109.849 94.1742L109.86 94.1794Z" fill="white"/>
<path d="M123.519 90.3879L117.059 90.8346L115.959 94.8962L111.231 95.2442L116.559 76.9412L122.341 76.5413L130.197 93.9197L125.166 94.2677L123.513 90.3776L123.519 90.3879ZM117.987 87.4223L122.142 87.121L119.666 81.1118L117.987 87.4223Z" fill="white"/>
<path d="M140.186 93.2029L137.032 82.0311L135.603 92.9744L131.047 92.7511L133.7 74.9519L139.007 75.2272L142.334 87.6663L146.963 75.6738L152.291 75.9491L152.99 93.9249L148.407 93.6496L148.23 82.6543L143.851 93.4003L140.17 93.2029H140.186Z" fill="white"/>
<path d="M70.7601 97.6124L59.0667 103.861C57.1795 104.868 55.0525 105.398 52.915 105.398C50.7776 105.398 48.6505 104.863 46.7633 103.861L8.23702 83.2775C6.20383 82.192 4.55121 80.4417 3.58675 78.3538C2.94552 76.967 2.60665 75.4244 2.60665 73.8975V29.9786C2.60665 28.4049 2.9768 26.826 3.67538 25.4133C4.74932 23.2423 6.56876 21.5127 8.79484 20.5415L47.1074 3.80706C48.9477 3.00202 50.9027 2.5969 52.915 2.5969C54.9274 2.5969 56.8771 3.00721 58.7226 3.80706L97.0352 20.5363C99.2613 21.5075 101.081 23.2371 102.155 25.4081C102.853 26.8208 103.223 28.3997 103.223 29.9735V44.781H105.83V29.9735C105.83 27.9894 105.371 26.0365 104.49 24.2603C103.14 21.5387 100.872 19.3781 98.0779 18.1575L59.7653 1.4283C57.607 0.488218 55.2766 0 52.915 0C50.5586 0 48.223 0.488218 46.0647 1.4283L7.75218 18.1627C4.96306 19.3833 2.69006 21.5439 1.33982 24.2655C0.458771 26.0417 0 27.9998 0 29.9786V73.9027C0 75.814 0.417064 77.7097 1.21991 79.4445C2.4294 82.0569 4.46259 84.2072 7.00668 85.5679L45.533 106.156C47.8008 107.372 50.3396 108.005 52.915 108.005C55.4904 108.005 58.0293 107.372 60.2971 106.156L76.2706 97.6176H70.7549L70.7601 97.6124Z" fill="white"/>
<path d="M52.915 49.9072C52.6856 49.9072 52.4562 49.8552 52.2321 49.7514L9.10241 28.9346C8.32563 28.5606 8.0024 27.6257 8.37776 26.8519C8.75312 26.078 9.69151 25.756 10.4683 26.1299L53.6032 46.9519C54.3799 47.3258 54.7032 48.2607 54.3278 49.0346C54.0567 49.5903 53.4989 49.9124 52.9202 49.9124L52.915 49.9072Z" fill="white"/>
<path d="M61.7828 45.991C61.1833 45.991 60.6098 45.643 60.3544 45.0613C60.0051 44.277 60.3596 43.3525 61.152 43.0046L94.9498 28.0724C95.737 27.7244 96.665 28.0776 97.0143 28.867C97.3636 29.6513 97.0091 30.5758 96.2167 30.9238L62.4188 45.856C62.2103 45.9494 61.9966 45.991 61.788 45.991H61.7828Z" fill="white"/>
<path d="M52.915 99.1703C52.0496 99.1703 51.351 98.4743 51.351 97.6122V48.3489C51.351 47.4867 52.0496 46.7908 52.915 46.7908C53.7804 46.7908 54.479 47.4867 54.479 48.3489V97.6122C54.479 98.4743 53.7804 99.1703 52.915 99.1703Z" fill="white"/>
<path d="M19.8314 26.1769C19.6333 26.1094 19.4456 26.0055 19.2684 25.8705C18.4082 25.2005 18.257 23.9644 18.9243 23.1074C23.7206 16.9839 30.8471 12.5536 38.4742 10.9487C39.5429 10.7253 40.5908 11.4057 40.815 12.4705C41.0391 13.5352 40.3562 14.5791 39.2875 14.8025C32.5571 16.2204 26.2699 20.1313 22.0367 25.5329C21.4997 26.2185 20.603 26.4522 19.821 26.1769H19.8314Z" fill="white"/>
<path d="M88.4333 20.8325C88.6105 20.9416 88.7773 21.0766 88.9233 21.2428C89.6323 22.0686 89.5333 23.3151 88.7043 24.0215C82.7716 29.0595 74.8995 31.9784 67.1056 32.0303C66.0161 32.0355 65.1246 31.163 65.1142 30.0723C65.1089 28.9868 65.9848 28.0986 67.0796 28.0882C73.9559 28.0415 80.9052 25.4705 86.1394 21.0195C86.8015 20.4585 87.7295 20.4066 88.4385 20.8273L88.4333 20.8325Z" fill="white"/>
<path d="M41.2425 33.4949C40.7316 32.4197 41.0652 31.1005 42.0818 30.4149C43.2079 29.6514 44.7406 29.9423 45.5069 31.0642C49.3804 36.7358 51.3406 37.1461 57.8677 33.6714C59.0667 33.0326 60.563 33.4845 61.2042 34.679C61.8506 35.8788 61.3919 37.3642 60.1928 38.0031C56.8302 39.7949 53.2331 41.3531 49.6984 40.626C46.7373 40.0183 44.2662 37.9823 41.4301 33.8273C41.3572 33.7182 41.2946 33.6091 41.2425 33.5V33.4949Z" fill="white"/>
<path d="M49.125 26.7066C48.9321 26.4677 48.7913 26.1873 48.7131 25.8756C47.1856 19.8249 49.443 17.1397 51.252 14.9842C52.7743 13.1768 53.8743 11.8679 53.1288 8.1336C52.8942 6.94941 53.6657 5.79638 54.8596 5.55747C56.0534 5.32375 57.2056 6.09243 57.4454 7.28181C58.5975 13.0729 56.3923 15.6906 54.625 17.7941C53.0454 19.6742 51.9975 20.9207 52.9776 24.8057C53.2747 25.9795 52.5605 27.1689 51.3823 27.4649C50.5221 27.6831 49.6463 27.3559 49.125 26.7066Z" fill="white"/>
<path d="M34.1263 30.8252C35.9517 30.8252 37.4315 29.351 37.4315 27.5324C37.4315 25.7138 35.9517 24.2395 34.1263 24.2395C32.3008 24.2395 30.821 25.7138 30.821 27.5324C30.821 29.351 32.3008 30.8252 34.1263 30.8252Z" fill="white"/>
<path d="M69.2952 21.8816C71.4345 21.8816 73.1687 20.1538 73.1687 18.0226C73.1687 15.8913 71.4345 14.1636 69.2952 14.1636C67.156 14.1636 65.4218 15.8913 65.4218 18.0226C65.4218 20.1538 67.156 21.8816 69.2952 21.8816Z" fill="white"/>
<path d="M18.7679 37.8577C18.9243 37.8784 19.0754 37.9304 19.2214 38.0031C19.9461 38.3718 20.2328 39.2548 19.8627 39.9767C17.2195 45.129 12.637 49.3723 7.28296 51.616C6.53224 51.9329 5.67205 51.5797 5.35404 50.8318C5.03602 50.0839 5.39053 49.2269 6.14124 48.9101C10.8645 46.9312 14.91 43.1865 17.2404 38.6419C17.5375 38.0654 18.1579 37.7694 18.7679 37.8577Z" fill="white"/>
<path d="M28.0632 45.02C28.0945 44.8122 28.157 44.6097 28.2561 44.4123C28.7513 43.4411 29.94 43.0515 30.9096 43.5449C37.8642 47.0508 43.6092 53.1587 46.6642 60.3054C47.0917 61.3078 46.6225 62.4608 45.6216 62.8867C44.6154 63.3126 43.4581 62.8451 43.0306 61.8479C40.3353 55.5426 35.268 50.1515 29.1319 47.0612C28.3551 46.6716 27.9485 45.8354 28.0684 45.02H28.0632Z" fill="white"/>
<path d="M38.495 65.151C39.6419 65.4834 40.4031 66.6105 40.2415 67.831C40.0642 69.1762 38.8235 70.1215 37.4732 69.9449C30.649 69.0464 29.0329 70.2305 27.2916 77.398C26.9736 78.7172 25.639 79.5275 24.3148 79.2054C22.9907 78.8886 22.1774 77.559 22.5006 76.2398C23.3973 72.547 24.6276 68.8386 27.521 66.6936C29.9504 64.8965 33.1201 64.4135 38.1197 65.0731C38.25 65.0887 38.3751 65.1146 38.495 65.151Z" fill="white"/>
<path d="M14.764 81.4596C14.4669 81.3973 14.1749 81.2674 13.9143 81.0753C8.88344 77.3617 8.91472 73.8611 8.946 71.0512C8.97207 68.6932 8.98771 66.9845 6.03698 64.5694C5.09858 63.8007 4.96304 62.4191 5.73461 61.4842C6.50618 60.5493 7.89291 60.4143 8.83131 61.183C13.4086 64.9329 13.3721 68.3504 13.346 71.0928C13.32 73.5494 13.3043 75.1699 16.5366 77.5539C17.5115 78.2758 17.7148 79.647 16.9953 80.6182C16.4636 81.3298 15.5877 81.631 14.7693 81.4596H14.764Z" fill="white"/>
<path d="M40.2623 95.3168C43.2193 95.3168 45.6164 92.9286 45.6164 89.9827C45.6164 87.0368 43.2193 84.6487 40.2623 84.6487C37.3054 84.6487 34.9083 87.0368 34.9083 89.9827C34.9083 92.9286 37.3054 95.3168 40.2623 95.3168Z" fill="white"/>
<path d="M20.7959 59.9312C22.6587 59.9312 24.1689 58.4267 24.1689 56.5708C24.1689 54.7149 22.6587 53.2104 20.7959 53.2104C18.933 53.2104 17.4229 54.7149 17.4229 56.5708C17.4229 58.4267 18.933 59.9312 20.7959 59.9312Z" fill="white"/>
</g>
<defs>
<clipPath id="clip0_77_114">
<rect width="153" height="108" fill="white"/>
</clipPath>
</defs>
</svg>
